<svg id="Layer_1" data-name="Layer 1" xmlns="http://www.w3.org/2000/svg" xmlns:xlink="http://www.w3.org/1999/xlink" viewBox="0 0 76.14 14.08"><defs><style>.cls-1{fill:none;}.cls-2{clip-path:url(#clip-path);}.cls-3{fill:#f3a83b;}.cls-4{clip-path:url(#clip-path-2);}.cls-5{clip-path:url(#clip-path-3);}.cls-6{clip-path:url(#clip-path-4);}.cls-7{clip-path:url(#clip-path-5);}</style><clipPath id="clip-path" transform="translate(0 0.04)"><rect class="cls-1" width="14.3" height="14"/></clipPath><clipPath id="clip-path-2" transform="translate(0 0.04)"><rect class="cls-1" x="15.5" width="14.3" height="14"/></clipPath><clipPath id="clip-path-3" transform="translate(0 0.04)"><rect class="cls-1" x="31" width="14.3" height="14"/></clipPath><clipPath id="clip-path-4" transform="translate(0 0.04)"><rect class="cls-1" x="46.5" width="14.3" height="14"/></clipPath><clipPath id="clip-path-5" transform="translate(0 0.04)"><rect class="cls-1" x="61.7" width="14.3" height="14"/></clipPath></defs><g class="cls-2"><path class="cls-3" d="M13.9,5,9.5,4.3,7.5.2A.38.38,0,0,0,6.9.1c-.1,0-.1.1-.2.2l-2,4.1L.4,5c-.3,0-.4.2-.4.5,0,.1.1.2.1.3L3.3,9l-.8,4.5c0,.2.1.5.4.5h.3l3.9-2.1L11,14a.48.48,0,0,0,.6-.2c0-.1.1-.2.1-.3L11,9l3.2-3.2c.2-.1.2-.4.1-.6A.52.52,0,0,0,13.9,5Z" transform="translate(0 0.04)"/></g><g class="cls-4"><path class="cls-3" d="M29.4,5,25,4.3,23,.2a.48.48,0,0,0-.6-.2c-.1,0-.1.1-.2.2l-2,4.1L15.9,5a.46.46,0,0,0-.4.5c0,.1.1.2.1.3L18.8,9,18,13.5c0,.2.1.5.4.5a.37.37,0,0,0,.3-.1l3.9-2.1,3.9,2.1a.48.48,0,0,0,.6-.2c0-.1.1-.2.1-.3L26.5,9l3.2-3.2c.2-.1.2-.4.1-.6A.52.52,0,0,0,29.4,5Z" transform="translate(0 0.04)"/></g><g class="cls-5"><path class="cls-3" d="M44.9,5l-4.4-.7L38.5.2a.48.48,0,0,0-.6-.2c-.1,0-.1.1-.2.2l-2,4.1L31.4,5c-.3,0-.4.2-.4.5a.35.35,0,0,0,.1.2L34.3,9l-.8,4.5c0,.2.1.5.4.5a.37.37,0,0,0,.3-.1l3.9-2.1L42,13.9a.48.48,0,0,0,.6-.2c0-.1.1-.2.1-.3L42,9l3.2-3.2a.48.48,0,0,0,.2-.6A.76.76,0,0,0,44.9,5Z" transform="translate(0 0.04)"/></g><g class="cls-6"><path class="cls-3" d="M60.4,5,56,4.3,54,.2a.48.48,0,0,0-.6-.2c-.1,0-.1.1-.2.2l-2,4.1L46.9,5c-.2,0-.4.3-.4.5a.35.35,0,0,0,.1.2L49.8,9,49,13.5c0,.2.1.5.4.5a.37.37,0,0,0,.3-.1l3.9-2.1,3.9,2.1a.48.48,0,0,0,.6-.2c0-.1.1-.2.1-.3L57.5,9l3.2-3.2a.48.48,0,0,0,.2-.6C60.7,5.1,60.6,5,60.4,5Z" transform="translate(0 0.04)"/></g><g class="cls-7"><path class="cls-3" d="M75.6,5l-4.4-.7L69.2.2a.48.48,0,0,0-.6-.2c-.1,0-.1.1-.2.2l-2,4.1L62.1,5c-.2,0-.4.3-.4.5a.35.35,0,0,0,.1.2L65,9l-.8,4.5c0,.2.1.5.4.5a.37.37,0,0,0,.3-.1l3.9-2.1,3.9,2.1a.48.48,0,0,0,.6-.2c0-.1.1-.2.1-.3L72.7,9l3.2-3.2a.48.48,0,0,0,.2-.6C75.9,5.1,75.8,5,75.6,5Z" transform="translate(0 0.04)"/></g></svg>