<svg width="78" height="40" viewBox="0 0 78 40" fill="none" xmlns="http://www.w3.org/2000/svg">
<g clip-path="url(#clip0)">
<path d="M42.0269 23.321C42.0269 25.6547 38.9798 25.5649 38.9798 25.5649H35.9327V21.2566H38.9798C42.1165 21.2566 42.0269 23.321 42.0269 23.321ZM36.0223 14.7044H38.3524C40.7722 14.7942 40.6826 16.5893 40.6826 16.5893C40.6826 18.7435 38.0836 18.7435 38.0836 18.7435H36.1119V14.7044H36.0223ZM41.4891 19.641C41.4891 19.641 43.5504 18.7435 43.5504 16.4996C43.5504 16.4996 43.8193 12.7298 38.8005 12.281H33.2441V27.9883H39.6967C39.6967 27.9883 45.0739 27.9883 45.0739 23.5903C44.9843 23.5005 45.0739 20.5386 41.4891 19.641ZM26.9707 9.22931H50.5407V31.04H26.9707V9.22931Z" fill="black"/>
<path d="M15.7681 23.321C15.7681 25.6547 12.721 25.5649 12.721 25.5649H9.67391V21.2566H12.721C15.8577 21.2566 15.7681 23.321 15.7681 23.321ZM9.76353 14.7044H12.0936C14.5134 14.7942 14.4238 16.5893 14.4238 16.5893C14.4238 18.7435 11.8248 18.7435 11.8248 18.7435H9.85315V14.7044H9.76353ZM15.2303 19.641C15.2303 19.641 17.2916 18.7435 17.2916 16.4996C17.2916 16.4996 17.5605 12.7298 12.5418 12.281H6.89569V27.9883H13.3483C13.3483 27.9883 18.7255 27.9883 18.7255 23.5903C18.7255 23.5005 18.8151 20.5386 15.2303 19.641ZM0.711914 9.22931H24.282V31.04H0.711914V9.22931ZM72.9456 13.4478V16.32C72.9456 16.32 70.0778 14.6147 66.8514 14.5249C66.8514 14.5249 60.9365 14.4352 60.6677 20.0898C60.6677 20.0898 60.4884 25.2956 66.7618 25.6547C66.7618 25.6547 69.4504 26.0137 73.0352 23.68V26.7317C73.0352 26.7317 68.1957 29.5142 62.5497 27.36C62.5497 27.36 57.7998 25.6547 57.6206 20.0898C57.6206 20.0898 57.4414 14.3454 63.7147 12.4605C63.7147 12.4605 65.4175 11.8322 68.375 12.1015C68.5542 12.1913 70.3466 12.3708 72.9456 13.4478ZM54.215 31.04H77.7851V9.22931H54.215V31.04Z" fill="black"/>
</g>
<defs>
<clipPath id="clip0">
<rect width="77.0732" height="40" fill="white" transform="translate(0.711914)"/>
</clipPath>
</defs>
</svg>
