<svg width="54" height="40" viewBox="0 0 54 40" fill="none" xmlns="http://www.w3.org/2000/svg">
<g clip-path="url(#clip0)">
<path d="M17.0492 14.7735H12.9825C10.0948 14.7735 7.7538 17.1135 7.7538 20C7.7538 22.8865 10.0948 25.2265 12.9825 25.2265H17.5314C17.9068 25.2265 18.2112 24.9223 18.2112 24.547V12.5494C18.2137 10.3999 19.6616 8.52061 21.7401 7.96923C23.8185 7.41784 26.0082 8.33208 27.0767 10.1974L32.1543 19.0766V12.5494C32.1569 10.3999 33.6048 8.52061 35.6832 7.96923C37.7617 7.41784 39.9513 8.33208 41.0198 10.1974L46.0975 19.0766V7.80487H49.0023L49.5833 8.38559L50.1642 7.80487H53.069V27.4506C53.0665 29.6001 51.6186 31.4794 49.5401 32.0308C47.4617 32.5821 45.2721 31.6679 44.2035 29.8025L39.1259 20.9233V27.4506C39.1234 29.6001 37.6754 31.4794 35.597 32.0308C33.5185 32.5821 31.3289 31.6679 30.2604 29.8025L25.1827 20.9233V27.4506C25.1827 30.0709 23.0577 32.1951 20.4363 32.1951H12.9825C6.24447 32.1951 0.782227 26.7352 0.782227 20C0.782227 13.2648 6.24447 7.80487 12.9825 7.80487H17.0492V10.7085L16.4683 11.2892L17.0492 11.8699V14.7735Z" fill="#CC0000"/>
<path d="M17.0488 11.2892H12.982C8.16918 11.2892 4.26758 15.1892 4.26758 20C4.26758 24.8108 8.16918 28.7108 12.982 28.7108H20.4358C21.1321 28.7108 21.6965 28.1466 21.6965 27.4506V12.5494C21.6975 11.9792 22.0813 11.4808 22.6324 11.3339C23.1835 11.187 23.7646 11.4283 24.0494 11.9222L33.2868 28.0778C33.5716 28.5717 34.1527 28.813 34.7038 28.6661C35.2549 28.5192 35.6387 28.0207 35.6397 27.4506V12.5494C35.6407 11.9792 36.0244 11.4808 36.5755 11.3339C37.1266 11.187 37.7077 11.4283 37.9926 11.9222L47.2299 28.0778C47.5148 28.5717 48.0959 28.813 48.647 28.6661C49.1981 28.5192 49.5818 28.0207 49.5828 27.4506V7.80487" stroke="white" stroke-width="3"/>
</g>
<defs>
<clipPath id="clip0">
<rect width="52.6829" height="40" fill="white" transform="translate(0.782227)"/>
</clipPath>
</defs>
</svg>
