<svg width="123" height="40" viewBox="0 0 123 40" fill="none" xmlns="http://www.w3.org/2000/svg">
<path d="M37.1141 20.954C37.4139 20.804 37.7438 20.6241 38.0436 20.4742C38.1635 20.4143 38.5833 20.2644 38.6433 20.1444C38.6732 20.0845 38.6433 19.9046 38.6433 19.8146C38.6433 19.5747 38.6433 19.3349 38.6433 19.095C38.6433 17.386 38.6433 15.6769 38.6433 13.9679C38.6433 12.2888 38.6433 10.6398 38.6433 8.96069C38.6433 8.75081 38.6433 8.51095 38.6433 8.30106C38.6433 8.27108 38.6732 8.0612 38.6433 8.03122C38.6133 8.00123 38.3734 8.03122 38.3434 8.03122C38.1335 8.03122 37.8937 8.03122 37.6838 8.03122C37.4439 8.03122 37.4739 8.0612 37.324 8.2411C36.7543 8.99068 36.1846 9.74026 35.615 10.5198C35.3451 10.8796 35.0753 11.2094 34.8354 11.5692C34.6555 11.8091 34.6555 11.8391 34.3257 11.8391C34.3557 11.1794 34.3856 10.5198 34.4156 9.86019C34.4456 9.38046 34.4456 8.90073 34.4756 8.421C34.4756 8.2411 34.5056 8.0612 34.5056 7.8813C34.5056 7.82133 34.4756 7.64143 34.5056 7.61145C34.5655 7.5215 35.1052 7.58147 35.2552 7.58147C35.9748 7.58147 36.6944 7.58147 37.4139 7.58147C39.3629 7.58147 41.3417 7.58147 43.2907 7.58147C44.1002 7.58147 44.8798 7.58147 45.6893 7.58147C45.9592 7.58147 46.199 7.58147 46.4689 7.58147C46.5288 7.58147 46.7987 7.55148 46.8586 7.58147C46.9186 7.61145 46.8886 7.79135 46.8886 7.8813C46.9186 8.27108 46.9186 8.69085 46.9486 9.08063C46.9786 9.95014 47.0086 10.7897 47.0685 11.6592C47.0685 11.7191 47.0685 11.7791 47.0685 11.8391C46.9186 11.8391 46.7987 11.8691 46.6788 11.7791C46.5588 11.6892 46.4689 11.5093 46.3789 11.3893C46.0191 10.9096 45.6593 10.3999 45.2695 9.92016C44.9097 9.44042 44.5499 8.96069 44.1901 8.48096C44.1302 8.39101 44.0402 8.18113 43.9203 8.12116C43.8303 8.0612 43.6505 8.09118 43.5305 8.09118C43.3806 8.09118 43.2307 8.09118 43.0508 8.09118C42.9908 8.09118 42.751 8.0612 42.691 8.09118C42.661 8.12116 42.691 8.12116 42.661 8.18113C42.601 8.421 42.661 8.72083 42.661 8.96069C42.661 10.0401 42.661 11.0895 42.661 12.1689C42.661 14.5675 42.661 16.9962 42.661 19.3948C42.661 19.6047 42.601 19.9046 42.661 20.1144C42.721 20.3243 43.2007 20.4742 43.4106 20.5642C43.6205 20.6841 43.9803 20.7741 44.1602 20.954C44.2201 21.0139 44.2801 21.3138 44.2201 21.4037C44.1901 21.4337 44.0402 21.4037 44.0102 21.4037C43.8303 21.4037 43.6504 21.4037 43.4705 21.4037C42.2412 21.4037 41.0119 21.4037 39.7826 21.4037C39.183 21.4037 38.5833 21.4037 38.0136 21.4037C37.8037 21.4037 37.5938 21.4037 37.4139 21.4037C37.354 21.4037 37.1441 21.4337 37.1141 21.4037C37.0841 21.2838 37.1141 21.0439 37.1141 20.954ZM48.2379 20.4143C48.2379 18.9451 48.2379 17.4759 48.2379 16.0367C48.2379 13.6381 48.2379 11.2694 48.2379 8.87074C48.2379 8.48096 48.2379 8.09118 48.2379 7.7014C48.2379 7.5215 48.2978 7.25165 48.2379 7.07175C48.1779 6.86187 47.8181 6.83189 47.6082 6.74194C47.4883 6.71196 47.0985 6.62201 47.0385 6.50207C47.0385 6.47209 47.0385 6.26221 47.0385 6.26221C47.0385 6.26221 47.0985 6.26221 47.1285 6.26221C47.2484 6.20224 47.4883 6.20224 47.6382 6.17226C47.9081 6.11229 48.1779 6.08231 48.4178 6.02234C49.0174 5.90241 49.6471 5.78248 50.2467 5.69253C50.6065 5.63256 50.9663 5.54261 51.3261 5.48265C51.4161 5.48265 51.7759 5.42268 51.8059 5.48265C51.8359 5.51263 51.8059 5.63256 51.8059 5.66254C51.8059 7.67142 51.8059 9.68029 51.8059 11.6892C51.8059 11.7491 51.8059 11.8091 51.8059 11.8691C52.9452 10.7297 54.9241 10.1001 56.5132 10.4898C57.8925 10.8197 58.3422 12.1089 58.3422 13.4282C58.3722 15.1072 58.3422 16.7563 58.3422 18.4354C58.3422 18.8851 58.3422 19.3349 58.3422 19.7846C58.3422 19.9345 58.2822 20.2943 58.3422 20.4442C58.3722 20.5042 58.4921 20.5342 58.5521 20.5942C58.762 20.7141 59.0018 20.834 59.2117 20.954C59.2417 20.9839 59.3317 21.0139 59.3317 21.0439C59.3616 21.0739 59.3616 21.3437 59.3317 21.3737C59.3017 21.4337 59.3017 21.4037 59.2117 21.4037C58.8819 21.4637 58.5221 21.4037 58.2223 21.4037C57.7126 21.4037 57.1729 21.4037 56.6632 21.4037C55.7337 21.4037 54.8042 21.4037 53.9047 21.4037C53.8747 21.4037 53.7248 21.4337 53.6948 21.4037C53.6648 21.3737 53.6648 21.0439 53.6948 21.0139C53.7848 20.894 54.1446 20.7741 54.2645 20.6841C54.3544 20.6241 54.6243 20.5342 54.6843 20.4442C54.7442 20.3543 54.6843 20.0245 54.6843 19.9345C54.6843 19.5148 54.6843 19.125 54.6843 18.7052C54.6843 16.9662 54.7142 15.1972 54.6843 13.4582C54.6843 12.9485 54.5943 12.3488 54.0846 12.0789C53.8147 11.929 53.4549 11.899 53.1551 11.899C52.9153 11.899 52.6754 11.959 52.4655 12.019C52.2856 12.0789 51.9558 12.1989 51.8359 12.3488C51.7459 12.4687 51.8059 12.6486 51.8059 12.7985C51.8059 13.1583 51.8059 13.5481 51.8059 13.9079C51.8059 15.8868 51.8059 17.8957 51.8059 19.8746C51.8059 20.0245 51.7459 20.3243 51.8059 20.4442C51.8359 20.5042 51.9558 20.5642 52.0457 20.5942C52.2556 20.7141 52.5255 20.834 52.7354 20.954C52.7653 20.9839 52.8253 20.9839 52.8253 21.0139C52.8553 21.0439 52.8553 21.3138 52.8253 21.3437C52.7953 21.3737 52.7653 21.3737 52.7054 21.3737C52.3756 21.4037 52.0158 21.3737 51.6859 21.3737C50.6065 21.3737 49.5571 21.3737 48.4777 21.3737C48.1179 21.3737 47.7282 21.3737 47.3684 21.3737C47.3384 21.3737 47.1885 21.4037 47.1585 21.3737C47.1285 21.3437 47.1585 21.0439 47.1885 20.9839C47.2784 20.864 47.6082 20.7441 47.7282 20.6841C47.938 20.5942 48.088 20.5042 48.2379 20.4143ZM62.4799 16.2766C62.5399 17.5958 62.9596 19.065 64.1589 19.7846C64.7886 20.1444 65.5682 20.2644 66.2877 20.2044C67.1573 20.1144 67.8769 19.6947 68.6264 19.3049C68.6264 19.4248 68.6564 19.6347 68.6264 19.7546C68.5665 19.8746 68.4166 20.0245 68.3266 20.1144C68.2067 20.2344 68.0568 20.3843 67.9068 20.5042C67.3971 20.924 66.8274 21.2238 66.2278 21.4337C65.0884 21.8235 63.7692 21.7935 62.5998 21.4937C61.6703 21.2538 60.8308 20.804 60.2012 20.0845C59.5715 19.3649 59.2117 18.4354 59.0618 17.4759C58.732 15.4071 59.1218 13.0384 60.8308 11.6592C62.33 10.4599 64.7286 10.22 66.4976 10.9396C68.6564 11.8091 69.0162 14.2677 69.0162 16.3066C67.0973 16.3066 65.1784 16.3066 63.2894 16.3066C63.0196 16.2766 62.7497 16.2766 62.4799 16.2766ZM62.4199 15.7669C63.0196 15.7369 63.6192 15.7069 64.2489 15.6469C64.6087 15.617 64.9985 15.617 65.3583 15.587C65.4182 15.587 65.5682 15.587 65.6281 15.557C65.7181 15.497 65.6581 14.8974 65.6581 14.7774C65.6281 13.698 65.5981 12.3788 64.9685 11.4493C64.5187 10.7897 63.8291 10.9096 63.4094 11.5093C62.5399 12.6786 62.4199 14.4176 62.4199 15.7669ZM17.0254 26.7107C17.0254 25.0317 17.3552 23.2927 18.2847 21.8834C19.1842 20.5042 20.6234 19.6047 22.1825 19.155C24.0714 18.6153 26.1703 18.6752 28.1192 19.035C28.5389 19.125 28.9587 19.2149 29.3485 19.3349C29.4084 19.3649 29.6783 19.4248 29.7083 19.4848C29.7083 19.5148 29.7083 19.5448 29.7083 19.5747C29.7982 19.9345 29.7383 20.3843 29.7383 20.7441C29.7682 21.6736 29.7682 22.633 29.7982 23.5625C29.6783 23.5625 29.4684 23.5925 29.3785 23.5625C29.3185 23.5325 29.2585 23.3826 29.2285 23.3226C28.9887 22.9628 28.7488 22.603 28.5389 22.2133C28.0292 21.4037 27.4895 20.5942 26.9798 19.7846C26.71 19.3349 25.9604 19.3349 25.4806 19.3349C24.9409 19.3349 24.4013 19.4248 23.9515 19.6947C22.9321 20.3243 22.4523 21.5536 22.1825 22.663C21.7627 24.432 21.7927 26.291 21.8827 28.09C21.9726 29.4692 22.0925 30.9384 22.6322 32.1977C22.9621 32.9772 23.5317 33.6668 24.4013 33.8467C24.6711 33.9067 24.9409 33.9067 25.2408 33.8767C25.4207 33.8467 26.0503 33.8167 26.1403 33.6368C26.1703 33.5769 26.1403 33.427 26.1403 33.367C26.1403 33.1871 26.1403 33.0372 26.1403 32.8573C26.1403 31.8079 26.1403 30.7585 26.1403 29.6791C26.1403 29.2593 26.1403 28.8695 26.1403 28.4498C26.1403 28.2399 26.2002 28.1499 26.0203 28.03C25.8105 27.9101 25.5706 27.7901 25.3607 27.6402C25.2108 27.5503 24.911 27.4603 24.821 27.3404C24.761 27.2804 24.7311 26.9506 24.791 26.8906C24.821 26.8307 24.821 26.8607 24.911 26.8607C25.1808 26.8007 25.5406 26.8607 25.8105 26.8607C26.2902 26.8607 26.7699 26.8607 27.2796 26.8607C28.329 26.8607 29.4084 26.8607 30.4579 26.8607C30.7577 26.8607 31.0875 26.8307 31.3873 26.8607C31.4173 26.8607 31.5073 26.8607 31.5073 26.8607C31.5372 26.8906 31.5372 27.3104 31.5073 27.3704C31.4473 27.4603 31.1475 27.5802 31.0275 27.6402C30.8177 27.7601 30.5778 27.8801 30.3679 28.03C30.128 28.1499 30.158 28.1499 30.158 28.4198C30.158 29.3493 30.158 30.3087 30.158 31.2382C30.158 31.7479 30.158 32.2576 30.158 32.7673C30.158 32.9472 30.158 33.1271 30.158 33.307C30.158 33.367 30.188 33.5169 30.158 33.5769C30.0981 33.7268 29.4684 33.8167 29.2885 33.8767C28.7788 34.0266 28.2391 34.1466 27.6994 34.2365C26.65 34.4164 25.6006 34.4764 24.5512 34.4464C22.8721 34.3864 21.1031 34.0266 19.7239 33.0072C18.5245 32.1377 17.745 30.8184 17.3852 29.3792C17.1153 28.5397 17.0254 27.6102 17.0254 26.7107ZM30.8476 23.9823C30.8476 23.9223 30.8177 23.6824 30.8476 23.6524C30.8776 23.6225 30.9076 23.6524 30.9376 23.6225C31.1175 23.5325 31.3573 23.5325 31.5672 23.5025C32.2568 23.3826 32.9465 23.2627 33.6661 23.1427C34.2057 23.0528 34.7454 22.9329 35.2552 22.8729C35.4051 22.8429 35.585 22.8429 35.7349 22.9029C35.8848 22.9329 35.8248 22.9029 35.8548 23.0228C35.9148 23.3826 35.8548 23.8024 35.8548 24.1622C35.8548 24.8218 35.8548 25.4814 35.8548 26.1411C35.8548 27.5802 35.8548 28.9895 35.8548 30.4286C35.8548 31.1782 35.6449 32.5575 36.3645 33.0072C36.7243 33.2471 37.234 33.2471 37.6538 33.1571C37.9836 33.0972 38.6133 32.8573 38.7332 32.4975C38.7632 32.4075 38.7332 32.2876 38.7332 32.1977C38.7332 31.9878 38.7332 31.7779 38.7332 31.568C38.7332 30.1888 38.7332 28.8096 38.7332 27.4003C38.7332 26.7707 38.7332 26.1111 38.7332 25.4814C38.7332 25.2715 38.7332 25.0617 38.7332 24.8518C38.7332 24.7918 38.7632 24.6119 38.7332 24.5519C38.6433 24.462 38.3434 24.372 38.2535 24.3421C38.0736 24.2821 37.9237 24.1921 37.7438 24.1322C37.6838 24.1022 37.4739 24.0722 37.4439 24.0122C37.4139 23.9823 37.4139 23.7124 37.4439 23.6824C37.4739 23.6524 37.4739 23.6824 37.5039 23.6524C37.6538 23.5625 37.9237 23.5925 38.0736 23.5625C39.3029 23.3526 40.5622 23.0828 41.8215 22.9029C41.9714 22.8729 42.1213 22.8729 42.2712 22.9029C42.4211 22.9329 42.3612 22.8729 42.3912 23.0228C42.4511 23.3226 42.3912 23.7424 42.3912 24.0722C42.3912 25.4215 42.3912 26.7707 42.3912 28.1199C42.3912 29.4392 42.3912 30.7884 42.3912 32.1077C42.3912 32.3176 42.3912 32.4975 42.3912 32.7074C42.3912 32.7973 42.3612 32.9472 42.3912 33.0672C42.4211 33.1571 42.3912 33.1271 42.5411 33.1871C42.8409 33.307 43.1707 33.4569 43.4705 33.5769C43.5605 33.6069 43.5905 33.6069 43.6205 33.6668C43.6504 33.7268 43.6504 33.9367 43.6205 33.9367C43.5605 33.9966 43.2607 33.9667 43.2007 33.9966C42.5411 34.0866 41.8814 34.1466 41.1918 34.2365C40.5922 34.2965 39.9925 34.3864 39.4228 34.4464C39.3029 34.4764 39.183 34.4764 39.063 34.4464C39.0031 34.4464 38.8232 34.4464 38.7932 34.4164C38.7632 34.3564 38.7932 34.1166 38.7932 34.0566C38.7932 33.8767 38.7932 33.6968 38.7932 33.5469C38.7932 33.4569 38.8531 33.2171 38.7932 33.1271C38.7332 33.0372 38.6133 33.1571 38.5233 33.2171C38.2835 33.427 38.0136 33.6368 37.7438 33.7868C36.7543 34.3864 35.525 34.6563 34.3856 34.4164C33.5461 34.2365 32.8265 33.7568 32.4667 32.9472C32.1969 32.3776 32.1369 31.7479 32.1369 31.1482C32.1369 29.9489 32.1369 28.7496 32.1369 27.5802C32.1369 26.8906 32.1369 26.201 32.1369 25.5414C32.1369 25.3015 32.1369 25.0916 32.1369 24.8518C32.1369 24.7918 32.1669 24.6119 32.1369 24.5519C32.0769 24.462 31.7171 24.372 31.6272 24.3121C31.3274 24.1921 31.0875 24.1022 30.8476 23.9823ZM59.1218 22.8429C59.1817 22.8429 59.4516 22.8429 59.4816 22.9029C59.5116 22.9329 59.4816 23.1427 59.4816 23.1727C59.4816 23.5925 59.4816 24.0122 59.4816 24.462C59.4816 24.9117 59.4816 25.3615 59.4816 25.8112C59.4816 25.9012 59.4516 26.0511 59.4816 26.1411V26.201C59.6015 26.321 59.6315 25.9312 59.6615 25.9012C59.9313 24.7918 60.441 23.5025 61.5804 23.0528C61.7903 22.9628 62.0002 22.9329 62.21 22.9029C62.3899 22.9029 62.8996 22.8429 62.9896 22.9928C63.0196 23.0528 62.9896 23.2027 62.9896 23.2627C62.9896 23.4426 62.9896 23.6524 62.9896 23.8323C62.9896 24.6719 62.9896 25.4814 62.9896 26.321C62.27 26.171 61.4605 26.201 60.7708 26.3509C60.441 26.4109 60.1412 26.5009 59.8414 26.6508C59.6914 26.7107 59.6615 26.6807 59.6315 26.8007C59.6015 26.9206 59.6315 27.1305 59.6315 27.2504C59.6315 27.5203 59.6315 27.8201 59.6315 28.09C59.6315 29.5292 59.6315 30.9384 59.6315 32.3776C59.6315 32.5874 59.6315 32.8273 59.6315 33.0372C59.6315 33.0972 59.6015 33.1871 59.6315 33.2471C59.6915 33.337 59.9013 33.397 59.9913 33.427C60.1412 33.5169 60.3211 33.6069 60.471 33.6968C60.531 33.7268 60.6209 33.7568 60.6509 33.8167C60.6809 33.8467 60.6809 34.2065 60.6509 34.2365C60.6209 34.2665 60.441 34.2365 60.3811 34.2365C60.1412 34.2365 59.8713 34.2365 59.6315 34.2365C58.9119 34.2365 58.1923 34.2365 57.4427 34.2365C56.7531 34.2365 56.0935 34.2365 55.4039 34.2365C55.2539 34.2365 54.9841 34.2965 54.8642 34.2365C54.8342 34.2365 54.8042 34.2365 54.7742 34.2365C54.7442 34.2065 54.7742 33.8767 54.7742 33.8467C54.8342 33.6668 55.224 33.5469 55.4039 33.4569C55.5238 33.397 55.7637 33.307 55.8236 33.1871C55.8536 33.1271 55.8236 32.9472 55.8236 32.8873C55.8236 32.6774 55.8236 32.4675 55.8236 32.2576C55.8236 29.6791 55.8236 27.1305 55.8236 24.5519C55.8236 24.522 55.8536 24.372 55.8236 24.3421C55.7936 24.3121 55.6437 24.2821 55.5838 24.2821C55.4039 24.2221 55.224 24.1622 55.0441 24.1322C54.8642 24.0722 54.4144 24.0422 54.5643 23.7424C54.5943 23.6524 54.7142 23.6824 54.8342 23.6524C56.1534 23.4126 57.4427 23.1727 58.762 22.9329C58.8819 22.8729 59.0018 22.8729 59.1218 22.8429ZM70.4254 23.1128C70.4254 22.3032 70.4254 21.4937 70.4254 20.7141C70.4254 20.4742 70.4254 20.2643 70.4254 20.0245C70.4254 19.9345 70.4554 19.7546 70.4254 19.6647C70.3954 19.6047 70.2755 19.5747 70.1856 19.5448C69.9457 19.4548 69.7058 19.3649 69.436 19.2749C69.2561 19.2149 69.1661 19.2449 69.1661 19.035C69.1661 18.8551 69.1361 18.9151 69.2861 18.8851C69.6159 18.7652 70.0057 18.7652 70.3355 18.7052C71.3249 18.5253 72.2844 18.3454 73.2738 18.1655C73.4837 18.1355 73.6936 18.0756 73.9035 18.1056C74.1433 18.1355 74.1733 18.0756 74.1733 18.2855C74.2033 18.7652 74.1733 19.2749 74.1733 19.7546C74.1733 21.6736 74.1733 23.6225 74.1733 25.5414C74.1733 27.4903 74.1733 29.4392 74.1733 31.3881C74.1733 31.8978 74.1733 32.3776 74.1733 32.8873C74.1733 33.0072 74.1433 33.0072 74.2333 33.0672C74.4132 33.1871 74.713 33.2471 74.8929 33.307C75.0129 33.337 75.3427 33.397 75.4026 33.4869C75.4326 33.5169 75.4326 33.8467 75.4026 33.8767C75.3727 33.9067 75.1928 33.9067 75.1628 33.9067C74.743 33.9667 74.3532 34.0266 73.9335 34.0566C73.004 34.1765 72.0745 34.2965 71.115 34.4164C70.9651 34.4464 70.6053 34.5064 70.5454 34.3864C70.4854 34.2665 70.5454 33.8767 70.5454 33.7568C70.5454 33.6668 70.6053 33.277 70.5454 33.2171C70.4854 33.1571 69.8258 33.7568 69.7358 33.8167C69.376 34.0566 68.9862 34.2365 68.5665 34.3564C67.9068 34.5363 67.1573 34.5363 66.4976 34.3864C63.6192 33.7268 63.0196 30.3087 63.2594 27.8201C63.3794 26.5009 63.7991 25.1816 64.6986 24.2221C65.5382 23.3526 66.6775 22.9029 67.8469 22.8129C68.7464 22.723 69.6159 22.7829 70.4254 23.1128ZM70.4254 32.6774C70.4254 30.2188 70.4254 27.7601 70.4254 25.3015C70.4254 24.8518 70.4254 24.372 70.4254 23.9223C70.4254 23.7424 70.3954 23.7124 70.1856 23.5925C69.7658 23.3526 69.2261 23.2627 68.7764 23.4426C68.0867 23.7124 67.7569 24.522 67.577 25.1816C67.2172 26.3809 67.1872 27.6702 67.2172 28.9295C67.2472 30.0089 67.2772 31.3281 67.8769 32.2876C68.4166 33.1271 69.6459 33.337 70.4254 32.6774ZM80.3499 22.8429C80.4998 22.8729 80.6797 22.8129 80.7396 22.9628C80.7696 23.0528 80.7396 23.2627 80.7396 23.3526C80.7396 23.9223 80.7396 24.492 80.7396 25.0317C80.7396 26.6808 80.7396 28.2998 80.7396 29.9489C80.7396 30.6385 80.7396 31.3581 80.7396 32.0477C80.7396 32.2876 80.7396 32.5275 80.7396 32.7374C80.7396 32.8573 80.7097 33.0372 80.7396 33.1571C80.7696 33.277 80.8896 33.307 81.0095 33.367C81.1894 33.4569 81.3393 33.5469 81.5192 33.6368C81.5792 33.6668 81.7591 33.7268 81.789 33.8167C81.789 33.8467 81.819 34.2065 81.789 34.2365H81.6991C81.5192 34.2665 81.2793 34.2365 81.0695 34.2365C79.5403 34.2365 78.0412 34.2365 76.512 34.2365C76.3921 34.2365 76.0623 34.2965 75.9723 34.2365C75.9123 34.2065 75.8824 33.8467 75.9423 33.7868C76.0023 33.6968 76.2122 33.6368 76.3021 33.6069C76.482 33.5169 76.6619 33.397 76.8418 33.307C76.9917 33.2171 76.9618 33.2471 76.9618 33.1271C77.0217 32.6774 76.9618 32.1677 76.9618 31.7179C76.9618 30.9384 76.9618 30.1588 76.9618 29.3493C76.9618 27.9101 76.9618 26.4709 76.9618 25.0317C76.9618 24.9117 76.9917 24.7019 76.9618 24.5819C76.9318 24.462 76.7819 24.462 76.6619 24.402C76.452 24.3121 76.2721 24.2521 76.0623 24.1622C76.0023 24.1322 75.7624 24.1022 75.7025 24.0122C75.6725 23.9823 75.6725 23.6824 75.7025 23.6524C75.7325 23.6225 75.7924 23.6524 75.8224 23.6225C76.0623 23.5325 76.3321 23.5325 76.602 23.4725C76.9917 23.4126 77.3515 23.3226 77.7413 23.2627C78.4909 23.1427 79.2105 22.9928 79.9601 22.8729C80.11 22.9029 80.2299 22.8729 80.3499 22.8429ZM80.7696 20.0545C80.7097 21.8535 78.281 22.633 77.1716 21.2238C76.6619 20.5642 76.6319 19.6647 77.0817 18.9751C77.5314 18.2855 78.401 17.9856 79.2105 18.1655C80.11 18.3454 80.7696 19.125 80.7696 20.0545ZM93.9022 33.2171C93.9022 30.8184 93.9022 28.4198 93.9022 25.9911C93.9022 25.5414 93.9022 25.0617 93.9022 24.6119C93.9022 24.5819 93.9322 24.432 93.9022 24.402C93.8723 24.3421 93.6924 24.3121 93.6324 24.3121C93.4525 24.2521 93.2726 24.1921 93.0927 24.1322C93.0028 24.1022 92.7629 24.0722 92.7029 23.9823C92.643 23.9223 92.6729 23.7724 92.6729 23.6824C92.6729 23.5025 92.7329 23.5325 92.9128 23.5025C93.5724 23.3826 94.2321 23.2627 94.8917 23.1427C95.5513 23.0228 96.211 22.9029 96.8706 22.7829C96.9905 22.753 97.0805 22.723 97.2004 22.723C97.2604 22.723 97.5602 22.723 97.6202 22.753C97.6502 22.7829 97.6202 22.9628 97.6202 23.0228C97.6202 23.2027 97.6202 23.3826 97.6202 23.5925C97.6202 23.6824 97.5602 23.9523 97.6202 24.0422C97.6801 24.1622 97.8001 24.0422 97.89 23.9523C98.1599 23.7424 98.4297 23.5625 98.7295 23.4126C99.8089 22.8129 101.098 22.5431 102.328 22.723C103.167 22.8429 103.857 23.2927 104.156 24.1022C104.366 24.6719 104.396 25.2715 104.396 25.8712C104.396 27.1605 104.396 28.4198 104.396 29.7091C104.396 30.4286 104.396 31.1782 104.396 31.8978C104.396 32.1677 104.396 32.4375 104.396 32.7074C104.396 32.8273 104.366 33.0372 104.396 33.1571C104.426 33.277 104.516 33.307 104.666 33.367C104.816 33.4569 104.996 33.5469 105.146 33.6368C105.206 33.6668 105.416 33.7268 105.446 33.8167C105.476 33.8767 105.476 34.1765 105.446 34.2065C105.416 34.2665 105.476 34.2065 105.386 34.2365C105.266 34.2965 104.996 34.2365 104.846 34.2365C103.407 34.2365 101.998 34.2365 100.559 34.2365C100.379 34.2365 99.689 34.3265 99.5991 34.2065C99.5691 34.1765 99.5691 33.8467 99.5991 33.7868C99.629 33.7268 99.8089 33.6668 99.8689 33.6368C100.049 33.5469 100.199 33.4569 100.379 33.367C100.439 33.337 100.618 33.277 100.648 33.2171C100.678 33.1571 100.648 33.0372 100.648 32.9772C100.648 32.7673 100.648 32.5275 100.648 32.3176C100.648 31.628 100.648 30.9084 100.648 30.2188C100.648 28.8695 100.648 27.5203 100.648 26.171C100.648 25.6913 100.678 25.1516 100.379 24.7318C100.139 24.372 99.719 24.2821 99.2992 24.2521C98.9694 24.2521 98.6696 24.2821 98.3697 24.372C98.2198 24.432 97.7701 24.5519 97.6801 24.7318C97.6501 24.7918 97.6801 24.9117 97.6801 24.9717C97.6801 25.1816 97.6801 25.3915 97.6801 25.6014C97.6801 26.261 97.6801 26.9206 97.6801 27.5802C97.6801 29.0494 97.6801 30.5486 97.6801 32.0178C97.6801 32.2576 97.6801 32.4975 97.6801 32.7374C97.6801 32.8273 97.6501 33.0372 97.6801 33.1271C97.7101 33.2471 97.89 33.277 97.98 33.337C98.1299 33.427 98.3098 33.5169 98.4597 33.6069C98.5197 33.6368 98.6396 33.6968 98.6696 33.7268C98.6996 33.7568 98.6996 34.1166 98.6696 34.1466C98.6696 34.1765 98.6396 34.1466 98.6096 34.1466C98.4897 34.2065 98.1899 34.1466 98.0699 34.1466C97.3803 34.1466 96.6607 34.1466 95.9711 34.1466C95.2215 34.1466 94.5019 34.1466 93.7523 34.1466C93.5125 34.1466 93.2726 34.1466 93.0327 34.1466C92.8828 34.1466 92.8528 34.1765 92.8229 34.0866C92.7929 34.0266 92.7929 33.7568 92.8229 33.6968C92.8528 33.6368 93.0327 33.5769 93.0927 33.5469C93.3925 33.5169 93.6324 33.367 93.9022 33.2171ZM87.5458 27.7002C87.5458 26.9206 87.5758 26.1111 87.5158 25.3015C87.4259 24.432 87.186 23.4725 86.1966 23.2927C85.8967 23.2327 85.357 23.1427 85.1472 23.3826C84.9373 23.5925 84.7874 23.8923 84.6075 24.1322C84.0978 24.8218 83.588 25.5114 83.0783 26.201C82.9884 26.321 82.8984 26.5608 82.7785 26.6208C82.7485 26.6508 82.4487 26.6508 82.4487 26.6208C82.4187 26.5908 82.4487 26.3809 82.4487 26.321C82.4487 25.5114 82.4487 24.7019 82.4487 23.8923C82.4487 23.8024 82.4187 23.6524 82.4487 23.5625C82.5086 23.4126 83.1683 23.3226 83.3182 23.2627C84.1577 23.0528 85.0272 22.9029 85.8967 22.8429C87.1261 22.753 88.5053 22.7829 89.6446 23.3226C90.5441 23.7424 91.1138 24.492 91.2637 25.4514C91.3537 25.9312 91.3237 26.4709 91.3237 26.9506C91.3237 28.6297 91.3237 30.3087 91.3237 31.9878C91.3237 32.3176 91.3237 32.6174 91.3237 32.9472C91.3237 33.0372 91.2637 33.277 91.3237 33.337C91.3537 33.367 91.5036 33.397 91.5336 33.397C91.7734 33.4569 91.9833 33.5169 92.2232 33.5769C92.3731 33.6069 92.4031 33.6069 92.4031 33.7568C92.4031 33.9067 92.4331 33.9067 92.2532 33.9667C92.0433 34.0566 91.8334 34.1466 91.6235 34.2065C90.5142 34.5363 88.7751 34.6263 87.9656 33.6069C87.9056 33.5169 87.7257 33.1271 87.6358 33.0971C87.5158 33.0672 87.156 33.5469 87.0361 33.6368C86.5564 34.0566 85.9267 34.2965 85.2971 34.3864C84.1277 34.5363 82.8684 34.2965 82.1488 33.2771C81.5492 32.4075 81.4293 31.0583 81.879 30.0988C82.6885 28.2699 85.0872 28.09 86.8262 27.7901C87.0361 27.7901 87.276 27.7302 87.5458 27.7002ZM87.5458 32.6774C87.5458 31.2082 87.5458 29.7091 87.5458 28.2399C86.6463 28.2998 85.7168 28.3598 85.387 29.3493C85.1472 30.0089 85.1472 30.7884 85.2371 31.4781C85.2971 31.9578 85.417 32.5575 85.8668 32.8573C86.3465 33.1871 87.156 33.1271 87.5458 32.6774ZM49.5871 27.7002C49.5871 26.9206 49.6171 26.1111 49.5571 25.3015C49.4672 24.432 49.2273 23.4725 48.2379 23.2927C47.938 23.2327 47.3983 23.1427 47.1885 23.3826C46.9786 23.5925 46.8287 23.8923 46.6488 24.1322C46.1391 24.8218 45.6293 25.5114 45.1196 26.201C45.0297 26.321 44.9397 26.5608 44.8198 26.6208C44.7898 26.6508 44.49 26.6508 44.49 26.6208C44.46 26.5908 44.49 26.3809 44.49 26.321C44.49 25.5114 44.49 24.7019 44.49 23.9223C44.49 23.8323 44.46 23.6824 44.49 23.5925C44.5499 23.4426 45.1796 23.3526 45.3595 23.2927C46.199 23.0828 47.0685 22.9329 47.9081 22.8729C49.1374 22.7829 50.5166 22.8129 51.656 23.3526C52.5555 23.7724 53.1251 24.522 53.275 25.4814C53.365 25.9612 53.335 26.5009 53.335 26.9806C53.335 28.6596 53.335 30.3387 53.335 32.0178C53.335 32.3476 53.335 32.6474 53.335 32.9772C53.335 33.0672 53.275 33.307 53.335 33.367C53.365 33.397 53.5149 33.427 53.5449 33.427C53.7848 33.4869 53.9946 33.5469 54.2345 33.6069C54.3844 33.6368 54.4144 33.6368 54.4144 33.7868C54.4144 33.9367 54.4444 33.9367 54.2645 33.9966C54.0546 34.0866 53.8447 34.1765 53.6348 34.2365C52.5255 34.5663 50.7864 34.6563 49.9769 33.6368C49.9169 33.5469 49.737 33.1571 49.6471 33.1271C49.5272 33.0972 49.1674 33.5769 49.0774 33.6668C48.5977 34.0866 47.968 34.3265 47.3384 34.4164C46.169 34.5663 44.9097 34.3265 44.1901 33.307C43.5905 32.4375 43.4705 31.0883 43.9203 30.1288C44.7298 28.2998 47.1285 28.1199 48.8375 27.8201C49.0774 27.7901 49.3173 27.7302 49.5871 27.7002ZM49.5871 32.6774C49.5871 31.2082 49.5871 29.7091 49.5871 28.2399C48.6876 28.2998 47.7581 28.3598 47.4283 29.3493C47.1885 30.0089 47.1885 30.7884 47.2784 31.4781C47.3384 31.9578 47.4583 32.5575 47.9081 32.8573C48.3878 33.1871 49.1973 33.1271 49.5871 32.6774Z" fill="#121212"/>
</svg>
