<svg width="98" height="40" viewBox="0 0 98 40" fill="none" xmlns="http://www.w3.org/2000/svg">
<mask id="mask0" mask-type="alpha" maskUnits="userSpaceOnUse" x="0" y="0" width="98" height="40">
<rect width="97.6" height="40" fill="#C4C4C4"/>
</mask>
<g mask="url(#mask0)">
</g>
<g clip-path="url(#clip0)">
<path d="M8.29676 16.4844H5.88379V12.8741H1.97676V16.4844H0V19.0136H1.97676V24.3256C1.97676 27.5678 2.82703 28.5337 6.15946 28.5337C6.8719 28.5337 7.58433 28.4418 8.29676 28.4186V25.5445C7.95189 25.5445 7.60758 25.5905 7.28596 25.5905C6.43514 25.5905 5.88379 25.3834 5.88379 24.4407V19.0136H8.29676V16.4844Z" fill="#286F8D"/>
<path d="M11.5555 21.2511C11.7852 19.8129 12.7047 18.8315 14.0836 18.8315C15.3933 18.8315 16.336 19.927 16.4047 21.2511H11.5555ZM20.3117 23.4199C20.4955 19.4017 18.3582 16.2059 14.0836 16.2059C10.5674 16.2059 7.64844 18.8082 7.64844 22.4379C7.64844 26.4103 10.2911 28.7391 14.1755 28.7391C16.8414 28.7391 19.3922 27.5517 20.1052 24.8121H16.4506C16.083 25.6801 15.1636 26.1136 14.2214 26.1136C12.5668 26.1136 11.6247 25.0408 11.5555 23.4199H20.3117Z" fill="#286F8D"/>
<path d="M32.661 20.8531C32.3853 17.7028 29.742 16.139 26.7772 16.139C22.9393 16.139 20.5264 18.8525 20.5264 22.6466C20.5264 26.3029 23.1923 28.764 26.7772 28.764C29.9491 28.764 32.4312 26.924 32.7761 23.7277H28.9837C28.7999 24.9926 28.1101 25.7742 26.7545 25.7742C25.0999 25.7742 24.4328 24.1877 24.4328 22.6466C24.4328 20.9915 24.7783 19.1288 26.9615 19.1288C27.9496 19.1288 28.8458 19.8412 28.8685 20.8531H32.661Z" fill="#286F8D"/>
<path d="M32.8604 28.4186H36.7679V21.9109C36.7679 20.6001 37.4112 19.3585 38.882 19.3585C41.0193 19.3585 40.8355 21.0142 40.8355 22.6466V28.4186H44.7425V20.7612C44.7425 19.0369 44.4209 16.139 40.4447 16.139C39.0198 16.139 37.4112 16.8979 36.8133 18.1168H36.7679V12H32.8604V28.4186Z" fill="#286F8D"/>
<path d="M45.0391 28.4546H48.9466V22.5392C48.9466 21.0435 49.958 19.7083 51.8883 19.7083C52.4169 19.7083 52.8764 19.8002 53.3823 19.9386V16.3709C53.0834 16.3017 52.7618 16.279 52.4629 16.279C50.785 16.279 49.452 17.0845 48.8774 18.6034H48.8315V16.5093H45.0391V28.4546Z" fill="black"/>
<path d="M56.7771 25.0253C56.7771 24.0815 57.5128 23.7133 58.3858 23.5057C59.2366 23.276 60.2474 23.2068 60.7993 22.8614C60.8912 25.3242 60.2707 26.3832 58.409 26.3832C57.5361 26.3832 56.7771 25.9918 56.7771 25.0253ZM57.0069 20.1916C57.1912 19.1786 57.8804 18.6959 58.9604 18.6959C59.7653 18.6959 60.8453 19.0407 60.8453 19.9386C60.8453 20.6748 60.4777 20.9051 59.8112 21.0435C57.0988 21.5954 52.8701 21.2965 52.8701 25.1864C52.8701 27.6491 54.6631 28.8 56.9382 28.8C58.3631 28.8 59.8572 28.3854 60.868 27.327C60.9145 27.7178 60.9598 28.0865 61.0982 28.4546H65.028C64.5685 27.5113 64.5685 26.4064 64.5685 25.3934V20.1689C64.5685 16.785 61.8334 16.1639 59.0063 16.1639C57.6507 16.1639 56.2717 16.3942 55.2144 16.9926C54.1571 17.6137 53.422 18.6267 53.3528 20.1916H57.0069Z" fill="black"/>
<path d="M70.9623 19.1437C72.6629 19.1437 73.2834 20.7341 73.2834 22.4623C73.2834 23.9835 72.8699 25.8041 70.9623 25.8041C69.1694 25.8041 68.5721 23.9835 68.5721 22.3471C68.5721 20.826 69.1694 19.1437 70.9623 19.1437ZM77.0526 12H73.1456V17.7842H73.0996C72.2953 16.7014 71.1694 16.1484 69.698 16.1484C66.3196 16.1484 64.665 19.0977 64.665 22.2088C64.665 25.5738 66.2504 28.8 69.9969 28.8C71.3758 28.8 72.525 28.2005 73.2834 27.0712H73.3294V28.454H77.0526V12Z" fill="black"/>
<path d="M81.0096 25.0253C81.0096 24.0815 81.7447 23.7133 82.6182 23.5057C83.4685 23.276 84.4798 23.2068 85.0312 22.8614C85.1231 25.3242 84.5025 26.3832 82.6409 26.3832C81.7679 26.3832 81.0096 25.9918 81.0096 25.0253ZM81.2393 20.1916C81.4231 19.1786 82.1128 18.6959 83.1928 18.6959C83.9971 18.6959 85.0771 19.0407 85.0771 19.9386C85.0771 20.6748 84.7096 20.9051 84.0431 21.0435C81.3312 21.5954 77.1025 21.2965 77.1025 25.1864C77.1025 27.6491 78.895 28.8 81.1701 28.8C82.595 28.8 84.089 28.3854 85.1004 27.327C85.1463 27.7178 85.1923 28.0865 85.3301 28.4546H89.2598C88.8004 27.5113 88.8004 26.4064 88.8004 25.3934V20.1689C88.8004 16.785 86.0658 16.1639 83.2388 16.1639C81.8831 16.1639 80.5036 16.3942 79.4469 16.9926C78.3896 17.6137 77.6539 18.6267 77.5847 20.1916H81.2393Z" fill="black"/>
<path d="M89.3682 28.4546H93.2757V22.5392C93.2757 21.0435 94.2871 19.7083 96.2174 19.7083C96.746 19.7083 97.2055 19.8002 97.7114 19.9386V16.3709C97.4125 16.3017 97.0909 16.279 96.792 16.279C95.1141 16.279 93.7811 17.0845 93.2065 18.6034H93.1606V16.5093H89.3682V28.4546Z" fill="black"/>
<path fill-rule="evenodd" clip-rule="evenodd" d="M93.9209 28.4546H97.7039V24.635H93.9209V28.4546Z" fill="#E93A97"/>
</g>
<defs>
<clipPath id="clip0">
<rect width="97.7117" height="16.8" fill="white" transform="translate(0 12)"/>
</clipPath>
</defs>
</svg>
