<svg width="84" height="16" viewBox="0 0 84 16" fill="none" xmlns="http://www.w3.org/2000/svg">
<g clip-path="url(#clip0_1131_260)">
<path d="M16 0H0V16H16V0Z" fill="#00B890"/>
<path d="M11.9818 13.8956L10.572 9.47156L7.96777 11.34L11.7216 14.0847C11.8526 14.1821 12.0324 14.0529 11.9818 13.8975V13.8956Z" fill="url(#paint0_linear_1131_260)"/>
<path d="M3.93022 13.8451L5.34749 9.55585C5.36995 9.48658 5.34749 9.40982 5.28758 9.36675L1.65359 6.68761C1.52254 6.59025 1.59181 6.38244 1.75469 6.38244L6.3978 6.40116H6.40155L7.87686 1.99769C7.92928 1.8423 8.14833 1.84417 8.19888 1.99957L9.56186 6.28508C9.58432 6.35435 9.64798 6.40303 9.72099 6.40303L14.248 6.44047C14.4109 6.44047 14.4783 6.65016 14.3454 6.74565L10.5747 9.46973L10.5073 9.5184L10.468 9.54649L7.96672 11.3345L4.18858 14.0342C4.05565 14.1297 3.87967 13.9986 3.93022 13.8432V13.8451Z" fill="white"/>
</g>
<g clip-path="url(#clip1_1131_260)">
<path d="M33 0H17V16H33V0Z" fill="#00B890"/>
<path d="M28.9818 13.8956L27.572 9.47156L24.9678 11.34L28.7216 14.0847C28.8526 14.1821 29.0324 14.0529 28.9818 13.8975V13.8956Z" fill="url(#paint1_linear_1131_260)"/>
<path d="M20.9302 13.8451L22.3475 9.55585C22.37 9.48658 22.3475 9.40982 22.2876 9.36675L18.6536 6.68761C18.5225 6.59025 18.5918 6.38244 18.7547 6.38244L23.3978 6.40116H23.4015L24.8769 1.99769C24.9293 1.8423 25.1483 1.84417 25.1989 1.99957L26.5619 6.28508C26.5843 6.35435 26.648 6.40303 26.721 6.40303L31.248 6.44047C31.4109 6.44047 31.4783 6.65016 31.3454 6.74565L27.5747 9.46973L27.5073 9.5184L27.468 9.54649L24.9667 11.3345L21.1886 14.0342C21.0557 14.1297 20.8797 13.9986 20.9302 13.8432V13.8451Z" fill="white"/>
</g>
<g clip-path="url(#clip2_1131_260)">
<path d="M50 0H34V16H50V0Z" fill="#00B890"/>
<path d="M45.9818 13.8956L44.572 9.47156L41.9678 11.34L45.7216 14.0847C45.8526 14.1821 46.0324 14.0529 45.9818 13.8975V13.8956Z" fill="url(#paint2_linear_1131_260)"/>
<path d="M37.9302 13.8451L39.3475 9.55585C39.37 9.48658 39.3475 9.40982 39.2876 9.36675L35.6536 6.68761C35.5225 6.59025 35.5918 6.38244 35.7547 6.38244L40.3978 6.40116H40.4015L41.8769 1.99769C41.9293 1.8423 42.1483 1.84417 42.1989 1.99957L43.5619 6.28508C43.5843 6.35435 43.648 6.40303 43.721 6.40303L48.248 6.44047C48.4109 6.44047 48.4783 6.65016 48.3454 6.74565L44.5747 9.46973L44.5073 9.5184L44.468 9.54649L41.9667 11.3345L38.1886 14.0342C38.0557 14.1297 37.8797 13.9986 37.9302 13.8432V13.8451Z" fill="white"/>
</g>
<g clip-path="url(#clip3_1131_260)">
<path d="M67 0H51V16H67V0Z" fill="#DCDCE7"/>
<path d="M59 0H51V16H59V0Z" fill="#00B890"/>
<path d="M62.9818 13.8956L61.572 9.47156L58.9678 11.34L62.7216 14.0847C62.8526 14.1821 63.0324 14.0529 62.9818 13.8975V13.8956Z" fill="url(#paint3_linear_1131_260)"/>
<path d="M54.9302 13.8451L56.3475 9.55585C56.37 9.48658 56.3475 9.40982 56.2876 9.36675L52.6536 6.68761C52.5225 6.59025 52.5918 6.38244 52.7547 6.38244L57.3978 6.40116H57.4015L58.8769 1.99769C58.9293 1.8423 59.1483 1.84417 59.1989 1.99957L60.5619 6.28508C60.5843 6.35435 60.648 6.40303 60.721 6.40303L65.248 6.44047C65.4109 6.44047 65.4783 6.65016 65.3454 6.74565L61.5747 9.46973L61.5073 9.5184L61.468 9.54649L58.9667 11.3345L55.1886 14.0342C55.0557 14.1297 54.8797 13.9986 54.9302 13.8432V13.8451Z" fill="white"/>
</g>
<g clip-path="url(#clip4_1131_260)">
<path d="M84 0H68V16H84V0Z" fill="#DCDCE7"/>
<path d="M79.9818 13.8956L78.572 9.47156L75.9678 11.34L79.7216 14.0847C79.8526 14.1821 80.0324 14.0529 79.9818 13.8975V13.8956Z" fill="url(#paint4_linear_1131_260)"/>
<path d="M71.9302 13.8451L73.3475 9.55585C73.37 9.48658 73.3475 9.40982 73.2876 9.36675L69.6536 6.68761C69.5225 6.59025 69.5918 6.38244 69.7547 6.38244L74.3978 6.40116H74.4015L75.8769 1.99769C75.9293 1.8423 76.1483 1.84417 76.1989 1.99957L77.5619 6.28508C77.5843 6.35435 77.648 6.40303 77.721 6.40303L82.248 6.44047C82.4109 6.44047 82.4783 6.65016 82.3454 6.74565L78.5747 9.46973L78.5073 9.5184L78.468 9.54649L75.9667 11.3345L72.1886 14.0342C72.0557 14.1297 71.8797 13.9986 71.9302 13.8432V13.8451Z" fill="white"/>
</g>
<defs>
<linearGradient id="paint0_linear_1131_260" x1="12.7518" y1="12.9793" x2="8.87732" y2="10.1162" gradientUnits="userSpaceOnUse">
<stop stop-color="white"/>
<stop offset="0.34" stop-color="#FCFCFC"/>
<stop offset="0.52" stop-color="#F4F4F4"/>
<stop offset="0.66" stop-color="#E7E7E7"/>
<stop offset="0.78" stop-color="#D4D4D4"/>
<stop offset="0.89" stop-color="#BBBBBB"/>
<stop offset="0.99" stop-color="#9D9D9D"/>
<stop offset="1" stop-color="#999999"/>
</linearGradient>
<linearGradient id="paint1_linear_1131_260" x1="29.7518" y1="12.9793" x2="25.8773" y2="10.1162" gradientUnits="userSpaceOnUse">
<stop stop-color="white"/>
<stop offset="0.34" stop-color="#FCFCFC"/>
<stop offset="0.52" stop-color="#F4F4F4"/>
<stop offset="0.66" stop-color="#E7E7E7"/>
<stop offset="0.78" stop-color="#D4D4D4"/>
<stop offset="0.89" stop-color="#BBBBBB"/>
<stop offset="0.99" stop-color="#9D9D9D"/>
<stop offset="1" stop-color="#999999"/>
</linearGradient>
<linearGradient id="paint2_linear_1131_260" x1="46.7518" y1="12.9793" x2="42.8773" y2="10.1162" gradientUnits="userSpaceOnUse">
<stop stop-color="white"/>
<stop offset="0.34" stop-color="#FCFCFC"/>
<stop offset="0.52" stop-color="#F4F4F4"/>
<stop offset="0.66" stop-color="#E7E7E7"/>
<stop offset="0.78" stop-color="#D4D4D4"/>
<stop offset="0.89" stop-color="#BBBBBB"/>
<stop offset="0.99" stop-color="#9D9D9D"/>
<stop offset="1" stop-color="#999999"/>
</linearGradient>
<linearGradient id="paint3_linear_1131_260" x1="63.7498" y1="12.9792" x2="59.8766" y2="10.1138" gradientUnits="userSpaceOnUse">
<stop stop-color="white"/>
<stop offset="0.34" stop-color="#FCFCFC"/>
<stop offset="0.52" stop-color="#F4F4F4"/>
<stop offset="0.66" stop-color="#E7E7E7"/>
<stop offset="0.78" stop-color="#D4D4D4"/>
<stop offset="0.89" stop-color="#BBBBBB"/>
<stop offset="0.99" stop-color="#9D9D9D"/>
<stop offset="1" stop-color="#999999"/>
</linearGradient>
<linearGradient id="paint4_linear_1131_260" x1="80.751" y1="12.9788" x2="76.8766" y2="10.1157" gradientUnits="userSpaceOnUse">
<stop stop-color="white"/>
<stop offset="0.34" stop-color="#FCFCFC"/>
<stop offset="0.52" stop-color="#F4F4F4"/>
<stop offset="0.66" stop-color="#E7E7E7"/>
<stop offset="0.78" stop-color="#D4D4D4"/>
<stop offset="0.89" stop-color="#BBBBBB"/>
<stop offset="0.99" stop-color="#9D9D9D"/>
<stop offset="1" stop-color="#999999"/>
</linearGradient>
<clipPath id="clip0_1131_260">
<rect width="16" height="16" fill="white"/>
</clipPath>
<clipPath id="clip1_1131_260">
<rect width="16" height="16" fill="white" transform="translate(17)"/>
</clipPath>
<clipPath id="clip2_1131_260">
<rect width="16" height="16" fill="white" transform="translate(34)"/>
</clipPath>
<clipPath id="clip3_1131_260">
<rect width="16" height="16" fill="white" transform="translate(51)"/>
</clipPath>
<clipPath id="clip4_1131_260">
<rect width="16" height="16" fill="white" transform="translate(68)"/>
</clipPath>
</defs>
</svg>
